<?xml version="1.0" standalone="no"?>
<!DOCTYPE svg PUBLIC "-//W3C//DTD SVG 20010904//EN"
 "http://www.w3.org/TR/2001/REC-SVG-20010904/DTD/svg10.dtd">
<svg version="1.0" xmlns="http://www.w3.org/2000/svg"
 width="260.000000pt" height="260.000000pt" viewBox="0 0 260.000000 260.000000"
 preserveAspectRatio="xMidYMid meet">
<metadata>
Created by potrace 1.11, written by Peter Selinger 2001-2013
</metadata>
<g transform="translate(0.000000,260.000000) scale(0.100000,-0.100000)"
fill="#000000" stroke="none">
<path d="M1101 2574 c-223 -36 -378 -144 -491 -344 -122 -217 -142 -438 -55
-609 30 -61 86 -127 160 -192 33 -28 61 -55 62 -58 2 -3 -23 -7 -55 -8 -148
-6 -274 -47 -414 -136 -128 -80 -226 -210 -275 -364 -49 -152 -15 -330 93
-490 62 -92 120 -148 208 -199 73 -43 141 -58 229 -51 118 10 214 74 264 175
24 50 28 68 27 142 -1 118 -28 183 -100 249 -68 63 -132 80 -225 63 -112 -21
-168 -90 -169 -207 0 -68 21 -118 62 -148 33 -24 114 -32 148 -15 30 16 70 91
70 131 0 44 -24 27 -31 -22 -16 -116 -150 -129 -213 -21 -49 84 9 223 105 250
89 26 177 7 237 -50 51 -49 65 -75 86 -163 14 -55 15 -78 7 -118 -15 -71 -44
-122 -92 -162 -149 -128 -337 -107 -504 58 -88 87 -116 128 -162 241 -35 83
-37 96 -38 195 0 102 1 107 39 184 61 123 148 206 292 277 126 64 171 73 344
72 145 0 162 -2 265 -33 61 -18 119 -33 130 -34 29 -3 25 26 -5 38 -74 29
-237 119 -292 161 -275 209 -347 427 -235 706 75 186 201 302 397 365 77 26
98 28 235 28 135 0 159 -3 244 -28 142 -43 226 -89 314 -174 60 -59 81 -93
114 -185 37 -107 44 -282 14 -396 -42 -162 -48 -173 -161 -289 -145 -149 -349
-391 -446 -529 -134 -191 -169 -242 -226 -334 -358 -573 -254 -715 190 -260
248 253 559 661 731 958 57 98 127 249 136 292 4 19 11 42 15 50 5 8 111 118
237 243 217 218 226 229 191 224 -57 -8 -160 -62 -216 -112 -65 -59 -138 -161
-172 -242 -33 -77 -35 -80 -50 -54 -7 14 -21 21 -40 21 -17 0 -30 2 -30 5 0 2
15 33 34 67 88 161 100 397 26 536 -17 34 -19 35 -20 12 0 -49 -41 -575 -45
-597 -5 -21 -128 -116 -139 -106 -3 3 5 33 18 67 22 58 38 131 51 239 9 68
-13 231 -40 303 -33 87 -64 132 -136 198 -68 61 -120 94 -196 122 -26 9 -52
21 -58 25 -17 13 -169 38 -261 43 -56 3 -124 0 -183 -10z m306 -29 c98 -16
236 -69 308 -118 70 -48 141 -125 173 -189 39 -76 62 -192 61 -296 l-2 -77 -7
60 c-12 86 -48 221 -72 269 -35 69 -153 177 -243 223 -208 106 -485 128 -695
54 -101 -36 -111 -37 -77 -11 14 11 28 20 31 20 3 0 30 11 60 25 112 51 296
67 463 40z m-535 -1236 c59 -30 57 -40 -9 -32 -32 5 -116 7 -188 7 -120 -1
-137 -4 -220 -34 -49 -18 -96 -37 -104 -44 -11 -9 -13 -8 -10 3 6 18 117 76
184 96 117 35 280 37 347 4z m48 -1163 c0 -83 -3 -105 -15 -110 -43 -16 -56
27 -34 109 11 42 39 105 45 105 2 0 4 -47 4 -104z"/>
</g>
</svg>
