<?xml version="1.0" encoding="UTF-8" standalone="no"?>
<!-- Generator: Adobe Illustrator 19.0.0, SVG Export Plug-In . SVG Version: 6.00 Build 0)  -->
<svg id="Layer_1" style="enable-background:new 0 0 512 512" xmlns="http://www.w3.org/2000/svg" xml:space="preserve" viewBox="0 0 512 512" version="1.1" y="0px" x="0px" xmlns:xlink="http://www.w3.org/1999/xlink">
			<path fill="#646d70" d="m10.688 95.156c70.27 59.514 193.57 164.2 229.81 196.85 4.865 4.406 10.083 6.646 15.5 6.646 5.406 0 10.615-2.219 15.469-6.604 36.271-32.677 159.57-137.38 229.84-196.9 4.375-3.698 5.042-10.198 1.5-14.719-8.19-10.451-20.39-16.441-33.48-16.441h-426.66c-13.083 0-25.292 5.99-33.479 16.438-3.545 4.52-2.878 11.02 1.497 14.718z"/>
			<path fill="#646d70" d="m505.81 127.41c-3.781-1.76-8.229-1.146-11.375 1.542-77.93 66.06-177.39 150.74-208.68 178.93-17.563 15.854-41.938 15.854-59.542-0.021-33.354-30.052-145.04-125-208.66-178.92-3.167-2.688-7.625-3.281-11.375-1.542-3.768 1.76-6.185 5.53-6.185 9.68v268.25c0 23.53 19.135 42.67 42.667 42.67h426.67c23.52 0 42.66-19.14 42.66-42.67v-268.25c0-4.15-2.42-7.93-6.19-9.67z"/>
</svg>
